<?xml version="1.0" encoding="utf-8" ?>
<svg baseProfile="tiny" height="150" version="1.2" width="800" xmlns="http://www.w3.org/2000/svg" xmlns:ev="http://www.w3.org/2001/xml-events" xmlns:xlink="http://www.w3.org/1999/xlink"><defs /><rect fill="white" height="100%" width="100%" x="0" y="0" /><rect fill="#216e39" height="11" rx="2" ry="2" width="11" x="0" y="0" /><rect fill="#216e39" height="11" rx="2" ry="2" width="11" x="65" y="0" /><rect fill="#216e39" height="11" rx="2" ry="2" width="11" x="0" y="13" /><rect fill="#216e39" height="11" rx="2" ry="2" width="11" x="13" y="13" /><rect fill="#216e39" height="11" rx="2" ry="2" width="11" x="52" y="13" /><rect fill="#216e39" height="11" rx="2" ry="2" width="11" x="65" y="13" /><rect fill="#216e39" height="11" rx="2" ry="2" width="11" x="0" y="26" /><rect fill="#216e39" height="11" rx="2" ry="2" width="11" x="26" y="26" /><rect fill="#216e39" height="11" rx="2" ry="2" width="11" x="39" y="26" /><rect fill="#216e39" height="11" rx="2" ry="2" width="11" x="65" y="26" /><rect fill="#216e39" height="11" rx="2" ry="2" width="11" x="0" y="39" /><rect fill="#216e39" height="11" rx="2" ry="2" width="11" x="65" y="39" /><rect fill="#216e39" height="11" rx="2" ry="2" width="11" x="0" y="52" /><rect fill="#216e39" height="11" rx="2" ry="2" width="11" x="65" y="52" /><rect fill="#216e39" height="11" rx="2" ry="2" width="11" x="0" y="65" /><rect fill="#216e39" height="11" rx="2" ry="2" width="11" x="65" y="65" /><rect fill="#216e39" height="11" rx="2" ry="2" width="11" x="0" y="78" /><rect fill="#216e39" height="11" rx="2" ry="2" width="11" x="65" y="78" /><rect fill="#216e39" height="11" rx="2" ry="2" width="11" x="113" y="0" /><rect fill="#216e39" height="11" rx="2" ry="2" width="11" x="126" y="0" /><rect fill="#216e39" height="11" rx="2" ry="2" width="11" x="139" y="0" /><rect fill="#216e39" height="11" rx="2" ry="2" width="11" x="152" y="0" /><rect fill="#216e39" height="11" rx="2" ry="2" width="11" x="165" y="0" /><rect fill="#216e39" height="11" rx="2" ry="2" width="11" x="178" y="0" /><rect fill="#216e39" height="11" rx="2" ry="2" width="11" x="113" y="13" /><rect fill="#216e39" height="11" rx="2" ry="2" width="11" x="113" y="26" /><rect fill="#216e39" height="11" rx="2" ry="2" width="11" x="113" y="39" /><rect fill="#216e39" height="11" rx="2" ry="2" width="11" x="126" y="39" /><rect fill="#216e39" height="11" rx="2" ry="2" width="11" x="139" y="39" /><rect fill="#216e39" height="11" rx="2" ry="2" width="11" x="152" y="39" /><rect fill="#216e39" height="11" rx="2" ry="2" width="11" x="165" y="39" /><rect fill="#216e39" height="11" rx="2" ry="2" width="11" x="113" y="52" /><rect fill="#216e39" height="11" rx="2" ry="2" width="11" x="113" y="65" /><rect fill="#216e39" height="11" rx="2" ry="2" width="11" x="113" y="78" /><rect fill="#216e39" height="11" rx="2" ry="2" width="11" x="126" y="78" /><rect fill="#216e39" height="11" rx="2" ry="2" width="11" x="139" y="78" /><rect fill="#216e39" height="11" rx="2" ry="2" width="11" x="152" y="78" /><rect fill="#216e39" height="11" rx="2" ry="2" width="11" x="165" y="78" /><rect fill="#216e39" height="11" rx="2" ry="2" width="11" x="178" y="78" /><rect fill="#216e39" height="11" rx="2" ry="2" width="11" x="226" y="0" /><rect fill="#216e39" height="11" rx="2" ry="2" width="11" x="291" y="0" /><rect fill="#216e39" height="11" rx="2" ry="2" width="11" x="226" y="13" /><rect fill="#216e39" height="11" rx="2" ry="2" width="11" x="291" y="13" /><rect fill="#216e39" height="11" rx="2" ry="2" width="11" x="226" y="26" /><rect fill="#216e39" height="11" rx="2" ry="2" width="11" x="291" y="26" /><rect fill="#216e39" height="11" rx="2" ry="2" width="11" x="226" y="39" /><rect fill="#216e39" height="11" rx="2" ry="2" width="11" x="239" y="39" /><rect fill="#216e39" height="11" rx="2" ry="2" width="11" x="252" y="39" /><rect fill="#216e39" height="11" rx="2" ry="2" width="11" x="265" y="39" /><rect fill="#216e39" height="11" rx="2" ry="2" width="11" x="278" y="39" /><rect fill="#216e39" height="11" rx="2" ry="2" width="11" x="291" y="39" /><rect fill="#216e39" height="11" rx="2" ry="2" width="11" x="226" y="52" /><rect fill="#216e39" height="11" rx="2" ry="2" width="11" x="291" y="52" /><rect fill="#216e39" height="11" rx="2" ry="2" width="11" x="226" y="65" /><rect fill="#216e39" height="11" rx="2" ry="2" width="11" x="291" y="65" /><rect fill="#216e39" height="11" rx="2" ry="2" width="11" x="226" y="78" /><rect fill="#216e39" height="11" rx="2" ry="2" width="11" x="291" y="78" /><rect fill="#216e39" height="11" rx="2" ry="2" width="11" x="339" y="0" /><rect fill="#216e39" height="11" rx="2" ry="2" width="11" x="352" y="0" /><rect fill="#216e39" height="11" rx="2" ry="2" width="11" x="365" y="0" /><rect fill="#216e39" height="11" rx="2" ry="2" width="11" x="378" y="0" /><rect fill="#216e39" height="11" rx="2" ry="2" width="11" x="391" y="0" /><rect fill="#216e39" height="11" rx="2" ry="2" width="11" x="404" y="0" /><rect fill="#216e39" height="11" rx="2" ry="2" width="11" x="339" y="13" /><rect fill="#216e39" height="11" rx="2" ry="2" width="11" x="339" y="26" /><rect fill="#216e39" height="11" rx="2" ry="2" width="11" x="339" y="39" /><rect fill="#216e39" height="11" rx="2" ry="2" width="11" x="352" y="39" /><rect fill="#216e39" height="11" rx="2" ry="2" width="11" x="365" y="39" /><rect fill="#216e39" height="11" rx="2" ry="2" width="11" x="378" y="39" /><rect fill="#216e39" height="11" rx="2" ry="2" width="11" x="391" y="39" /><rect fill="#216e39" height="11" rx="2" ry="2" width="11" x="339" y="52" /><rect fill="#216e39" height="11" rx="2" ry="2" width="11" x="339" y="65" /><rect fill="#216e39" height="11" rx="2" ry="2" width="11" x="339" y="78" /><rect fill="#216e39" height="11" rx="2" ry="2" width="11" x="352" y="78" /><rect fill="#216e39" height="11" rx="2" ry="2" width="11" x="365" y="78" /><rect fill="#216e39" height="11" rx="2" ry="2" width="11" x="378" y="78" /><rect fill="#216e39" height="11" rx="2" ry="2" width="11" x="391" y="78" /><rect fill="#216e39" height="11" rx="2" ry="2" width="11" x="404" y="78" /><rect fill="#216e39" height="11" rx="2" ry="2" width="11" x="452" y="0" /><rect fill="#216e39" height="11" rx="2" ry="2" width="11" x="465" y="0" /><rect fill="#216e39" height="11" rx="2" ry="2" width="11" x="478" y="0" /><rect fill="#216e39" height="11" rx="2" ry="2" width="11" x="491" y="0" /><rect fill="#216e39" height="11" rx="2" ry="2" width="11" x="504" y="0" /><rect fill="#216e39" height="11" rx="2" ry="2" width="11" x="452" y="13" /><rect fill="#216e39" height="11" rx="2" ry="2" width="11" x="517" y="13" /><rect fill="#216e39" height="11" rx="2" ry="2" width="11" x="452" y="26" /><rect fill="#216e39" height="11" rx="2" ry="2" width="11" x="517" y="26" /><rect fill="#216e39" height="11" rx="2" ry="2" width="11" x="452" y="39" /><rect fill="#216e39" height="11" rx="2" ry="2" width="11" x="517" y="39" /><rect fill="#216e39" height="11" rx="2" ry="2" width="11" x="452" y="52" /><rect fill="#216e39" height="11" rx="2" ry="2" width="11" x="517" y="52" /><rect fill="#216e39" height="11" rx="2" ry="2" width="11" x="452" y="65" /><rect fill="#216e39" height="11" rx="2" ry="2" width="11" x="517" y="65" /><rect fill="#216e39" height="11" rx="2" ry="2" width="11" x="452" y="78" /><rect fill="#216e39" height="11" rx="2" ry="2" width="11" x="465" y="78" /><rect fill="#216e39" height="11" rx="2" ry="2" width="11" x="478" y="78" /><rect fill="#216e39" height="11" rx="2" ry="2" width="11" x="491" y="78" /><rect fill="#216e39" height="11" rx="2" ry="2" width="11" x="504" y="78" /><rect fill="#216e39" height="11" rx="2" ry="2" width="11" x="565" y="0" /><rect fill="#216e39" height="11" rx="2" ry="2" width="11" x="578" y="0" /><rect fill="#216e39" height="11" rx="2" ry="2" width="11" x="591" y="0" /><rect fill="#216e39" height="11" rx="2" ry="2" width="11" x="604" y="0" /><rect fill="#216e39" height="11" rx="2" ry="2" width="11" x="617" y="0" /><rect fill="#216e39" height="11" rx="2" ry="2" width="11" x="630" y="0" /><rect fill="#216e39" height="11" rx="2" ry="2" width="11" x="591" y="13" /><rect fill="#216e39" height="11" rx="2" ry="2" width="11" x="604" y="13" /><rect fill="#216e39" height="11" rx="2" ry="2" width="11" x="591" y="26" /><rect fill="#216e39" height="11" rx="2" ry="2" width="11" x="604" y="26" /><rect fill="#216e39" height="11" rx="2" ry="2" width="11" x="591" y="39" /><rect fill="#216e39" height="11" rx="2" ry="2" width="11" x="604" y="39" /><rect fill="#216e39" height="11" rx="2" ry="2" width="11" x="591" y="52" /><rect fill="#216e39" height="11" rx="2" ry="2" width="11" x="604" y="52" /><rect fill="#216e39" height="11" rx="2" ry="2" width="11" x="591" y="65" /><rect fill="#216e39" height="11" rx="2" ry="2" width="11" x="604" y="65" /><rect fill="#216e39" height="11" rx="2" ry="2" width="11" x="565" y="78" /><rect fill="#216e39" height="11" rx="2" ry="2" width="11" x="578" y="78" /><rect fill="#216e39" height="11" rx="2" ry="2" width="11" x="591" y="78" /><rect fill="#216e39" height="11" rx="2" ry="2" width="11" x="604" y="78" /><rect fill="#216e39" height="11" rx="2" ry="2" width="11" x="617" y="78" /><rect fill="#216e39" height="11" rx="2" ry="2" width="11" x="630" y="78" /></svg>